<svg width="16" height="16" viewBox="0 0 16 16" fill="none" xmlns="http://www.w3.org/2000/svg">
<g clip-path="url(#clip0_2064_13252)">
<path d="M13.4935 7.72721C13.426 6.36784 12.8563 5.07765 11.8893 4.11068C10.8579 3.07923 9.45869 2.5 8 2.5C6.54131 2.5 5.14213 3.07923 4.11068 4.11068C3.07923 5.14213 2.5 6.54131 2.5 8L2.50651 8.27018C2.53749 8.90015 2.67674 9.52086 2.91862 10.1048C3.19502 10.7721 3.59996 11.3786 4.11068 11.8893C4.62139 12.4 5.22791 12.805 5.89518 13.0814C6.56247 13.3578 7.27773 13.5 8 13.5L8.27018 13.4935C8.90015 13.4625 9.52086 13.3233 10.1048 13.0814C10.7721 12.805 11.3786 12.4 11.8893 11.8893C12.4 11.3786 12.805 10.7721 13.0814 10.1048C13.3578 9.43753 13.5 8.72227 13.5 8L13.4935 7.72721ZM8 7.5C8.27614 7.5 8.5 7.72386 8.5 8V10.1667H8.66667C8.94281 10.1667 9.16667 10.3905 9.16667 10.6667C9.16667 10.9428 8.94281 11.1667 8.66667 11.1667H8C7.72386 11.1667 7.5 10.9428 7.5 10.6667V8.5H7.33333C7.05719 8.5 6.83333 8.27614 6.83333 8C6.83333 7.72386 7.05719 7.5 7.33333 7.5H8ZM8.00651 5.5L8.05794 5.5026C8.31 5.52828 8.50651 5.74117 8.50651 6C8.50651 6.25883 8.31 6.47172 8.05794 6.4974L8.00651 6.5H8C7.72386 6.5 7.5 6.27614 7.5 6C7.5 5.72386 7.72386 5.5 8 5.5H8.00651ZM14.4922 8.31966C14.4555 9.06405 14.291 9.79761 14.0052 10.4876C13.6786 11.2762 13.1999 11.9928 12.5964 12.5964C11.9928 13.1999 11.2762 13.6786 10.4876 14.0052C9.79761 14.291 9.06405 14.4555 8.31966 14.4922L8 14.5C7.14641 14.5 6.30099 14.3319 5.51237 14.0052C4.72382 13.6786 4.00718 13.1999 3.40365 12.5964C2.80011 11.9928 2.32145 11.2762 1.99479 10.4876C1.70897 9.79761 1.54446 9.06405 1.50781 8.31966L1.5 8C1.5 6.27609 2.18466 4.62263 3.40365 3.40365C4.62263 2.18466 6.27609 1.5 8 1.5C9.72391 1.5 11.3774 2.18466 12.5964 3.40365C13.8153 4.62263 14.5 6.27609 14.5 8L14.4922 8.31966Z" fill="#6A7282"/>
</g>
<defs>
<clipPath id="clip0_2064_13252">
<rect width="16" height="16" fill="white"/>
</clipPath>
</defs>
</svg>
