<svg width="28" height="28" viewBox="0 0 28 28" fill="none" xmlns="http://www.w3.org/2000/svg">
<g clip-path="url(#clip0_2064_14917)">
<path d="M17.6465 9.6465C17.8418 9.45124 18.1583 9.45124 18.3535 9.6465C18.5488 9.84176 18.5488 10.1583 18.3535 10.3535L14.707 14L18.3535 17.6465L18.388 17.6843C18.5482 17.8806 18.5366 18.1705 18.3535 18.3535C18.1705 18.5366 17.8806 18.5482 17.6843 18.388L17.6465 18.3535L14 14.707L10.3535 18.3535C10.1583 18.5488 9.84176 18.5488 9.6465 18.3535C9.45124 18.1583 9.45124 17.8418 9.6465 17.6465L13.293 14L9.6465 10.3535L9.612 10.3158C9.45179 10.1194 9.46343 9.82957 9.6465 9.6465C9.82957 9.46343 10.1194 9.45179 10.3158 9.612L10.3535 9.6465L14 13.293L17.6465 9.6465Z" fill="#030712"/>
</g>
<defs>
<clipPath id="clip0_2064_14917">
<rect width="16" height="16" fill="white" transform="translate(6 6)"/>
</clipPath>
</defs>
</svg>
